<svg class="border shadow-md" viewBox="0 0 398.464 498.08" xmlns="http://www.w3.org/2000/svg" preserveAspectRatio="none" style="width: 398.464px; height: 498.08px;"><rect class="bg" id="bg" x="0" y="0" width="398.464" height="498.08" fill="#ffffff"></rect><g transform="rotate(359 199.232 249.04)"><path d="M -124.52 188.08 S -96.00 23.08
            0.00 188.08 52.26 160.08
            124.52 188.08 176.78 77.08
            249.04 188.08 297.56 -44.92
            373.56 188.08 425.82 122.08
            498.08 188.08 550.34 4.08
            622.60 188.08 h 110 V 1098.08 H -124.52 Z" fill="#DF6589"></path><path d="M -124.52 335.00 S -76.00 67.00
            0.00 335.00 52.26 92.00
            124.52 335.00 160.04 120.00
            249.04 335.00 301.30 177.50
            373.56 335.00 425.82 80.00
            498.08 335.00 550.34 161.00
            622.60 335.00 h 110 V -600 H -124.52 Z" fill="#3C1053"></path></g></svg>