<svg class="border shadow-md" viewBox="0 0 498.08 498.08" style="width: 498.08px; height: 498.08px;" xmlns="http://www.w3.org/2000/svg" preserveAspectRatio="none"><rect class="bg" id="bg" x="0" y="0" width="498.08" height="498.08" fill="#f3eaea"></rect><g transform="rotate(0 249.04 249.04)"><path d="M -349.04 -19.81 S -184.52 -44.71
            0.00 -19.81 164.52 -50.81
            349.04 -19.81 513.56 -52.81
            698.08 -19.81 862.60 -67.81
            1047.12 -19.81 h 110 V 698.0799999999999 H -349.04 Z" fill="#0707E5" id="-1"></path><path d="M -349.04 30.00 S -246.00 -8.00
            0.00 30.00 164.52 -9.00
            349.04 30.00 513.56 5.10
            698.08 30.00 862.60 5.10
            1047.12 30.00 h 110 V 698.0799999999999 H -349.04 Z" fill="#0e08db" id="0"></path><path d="M -349.04 79.81 S -184.52 54.90
            0.00 79.81 164.52 31.81
            349.04 79.81 513.56 30.81
            698.08 79.81 862.60 54.90
            1047.12 79.81 h 110 V 698.0799999999999 H -349.04 Z" fill="#1509d1" id="1"></path><path d="M -349.04 129.62 S -184.52 104.71
            0.00 129.62 164.52 82.62
            349.04 129.62 340.08 87.62
            698.08 129.62 862.60 104.71
            1047.12 129.62 h 110 V 698.0799999999999 H -349.04 Z" fill="#1c0ac7" id="2"></path><path d="M -349.04 179.42 S -216.00 154.52
            0.00 179.42 50.04 154.52
            349.04 179.42 513.56 137.42
            698.08 179.42 799.12 154.52
            1047.12 179.42 h 110 V 698.0799999999999 H -349.04 Z" fill="#230bbd" id="3"></path><path d="M -349.04 229.23 S -184.52 195.23
            0.00 229.23 77.04 204.33
            349.04 229.23 513.56 183.23
            698.08 229.23 756.12 204.33
            1047.12 229.23 h 110 V 698.0799999999999 H -349.04 Z" fill="#2a0cb3" id="4"></path><path d="M -349.04 279.04 S -184.52 234.04
            0.00 279.04 164.52 254.04
            349.04 279.04 486.08 254.14
            698.08 279.04 862.60 244.04
            1047.12 279.04 h 110 V 698.0799999999999 H -349.04 Z" fill="#310da9" id="5"></path><path d="M -349.04 328.85 S -199.00 303.85
            0.00 328.85 164.52 303.94
            349.04 328.85 513.56 303.94
            698.08 328.85 862.60 303.85
            1047.12 328.85 h 110 V 698.0799999999999 H -349.04 Z" fill="#380e9f" id="6"></path><path d="M -349.04 378.66 S -184.52 352.66
            0.00 378.66 164.52 341.66
            349.04 378.66 513.56 353.75
            698.08 378.66 862.60 343.66
            1047.12 378.66 h 110 V 698.0799999999999 H -349.04 Z" fill="#3f0f95" id="7"></path><path d="M -349.04 428.46 S -292.00 383.46
            0.00 428.46 164.52 403.56
            349.04 428.46 475.08 391.46
            698.08 428.46 779.12 393.46
            1047.12 428.46 h 110 V 698.0799999999999 H -349.04 Z" fill="#46108b" id="8"></path><path d="M -349.04 478.27 S -184.52 445.27
            0.00 478.27 164.52 453.37
            349.04 478.27 513.56 438.27
            698.08 478.27 862.60 452.27
            1047.12 478.27 h 110 V 698.0799999999999 H -349.04 Z" fill="#4d1181" id="9"></path></g></svg>