<svg class="border shadow-md" viewBox="0 0 498.08 498.08" xmlns="http://www.w3.org/2000/svg" preserveAspectRatio="none" style="width: 498.08px; height: 498.08px;"><rect class="bg" id="bg" x="0" y="0" width="498.08" height="498.08" fill="#ffffff"></rect><g transform="rotate(0 249.04 249.04)"><path d="M -349.04 -19.81 S -247.00 -52.81
            0.00 -19.81 164.52 -64.81
            349.04 -19.81 513.56 -44.71
            698.08 -19.81 862.60 -44.71
            1047.12 -19.81 h 110 V 698.0799999999999 H -349.04 Z" fill="#2D2F30" id="-1"></path><path d="M -349.04 30.00 S -257.00 -3.00
            0.00 30.00 82.04 5.10
            349.04 30.00 513.56 1.00
            698.08 30.00 862.60 1.00
            1047.12 30.00 h 110 V 698.0799999999999 H -349.04 Z" fill="#2a2c2d" id="0"></path><path id="1" d="M -349.04 79.81 S -239.00 54.90
            0.00 79.81 164.52 37.81
            349.04 79.81 513.56 54.90
            698.08 79.81 862.60 36.81
            1047.12 79.81 h 110 V 698.0799999999999 H -349.04 Z" fill="#27292a"></path><path id="2" d="M -349.04 129.62 S -184.52 93.62
            0.00 129.62 164.52 84.62
            349.04 129.62 513.56 104.71
            698.08 129.62 862.60 104.71
            1047.12 129.62 h 110 V 698.0799999999999 H -349.04 Z" fill="#242627"></path><path id="3" d="M -349.04 179.42 S -184.52 154.52
            0.00 179.42 164.52 154.52
            349.04 179.42 489.08 154.52
            698.08 179.42 862.12 154.52
            1047.12 179.42 h 110 V 698.0799999999999 H -349.04 Z" fill="#212324"></path><path id="4" d="M -349.04 229.23 S -184.52 202.23
            0.00 229.23 42.04 204.33
            349.04 229.23 513.56 190.23
            698.08 229.23 862.60 204.33
            1047.12 229.23 h 110 V 698.0799999999999 H -349.04 Z" fill="#1e2021"></path><path id="5" d="M -349.04 279.04 S -184.52 254.14
            0.00 279.04 164.52 247.04
            349.04 279.04 405.08 237.04
            698.08 279.04 862.60 248.04
            1047.12 279.04 h 110 V 698.0799999999999 H -349.04 Z" fill="#1b1d1e"></path><path id="6" d="M -349.04 328.85 S -270.00 303.94
            0.00 328.85 105.04 294.85
            349.04 328.85 482.08 303.94
            698.08 328.85 715.12 303.94
            1047.12 328.85 h 110 V 698.0799999999999 H -349.04 Z" fill="#181a1b"></path><path id="7" d="M -349.04 378.66 S -184.52 333.66
            0.00 378.66 27.04 332.66
            349.04 378.66 496.08 332.66
            698.08 378.66 795.12 353.75
            1047.12 378.66 h 110 V 698.0799999999999 H -349.04 Z" fill="#151718"></path><path id="8" d="M -349.04 428.46 S -184.52 384.46
            0.00 428.46 125.04 392.46
            349.04 428.46 513.56 403.56
            698.08 428.46 748.12 397.46
            1047.12 428.46 h 110 V 698.0799999999999 H -349.04 Z" fill="#121415"></path><path id="9" d="M -349.04 478.27 S -184.52 431.27
            0.00 478.27 164.52 453.37
            349.04 478.27 508.08 436.27
            698.08 478.27 862.60 453.37
            1047.12 478.27 h 110 V 698.0799999999999 H -349.04 Z" fill="#0f1112"></path></g></svg>